<svg width="48" height="48" viewBox="0 0 48 48" fill="none" xmlns="http://www.w3.org/2000/svg">
<g clip-path="url(#clip0_36_2)">
<rect width="48" height="48" rx="12" fill="#F8C600"/>
<path d="M12.4972 34.3707C11.5767 34.3707 10.7884 34.0469 10.1321 33.3991C9.48438 32.7514 9.16477 31.9673 9.1733 31.0469C9.16477 30.1435 9.48438 29.3722 10.1321 28.733C10.7884 28.0852 11.5767 27.7614 12.4972 27.7614C13.3665 27.7614 14.1335 28.0852 14.7983 28.733C15.4716 29.3722 15.8125 30.1435 15.821 31.0469C15.8125 31.6605 15.6506 32.2187 15.3352 32.7216C15.0284 33.2244 14.6236 33.625 14.1207 33.9233C13.6264 34.2216 13.0852 34.3707 12.4972 34.3707ZM25.4858 34.3324C24.233 34.3324 23.1207 34.1236 22.1491 33.706C21.1861 33.2798 20.4233 32.6406 19.8608 31.7884C19.3068 30.9276 19.0298 29.8494 19.0298 28.554C19.0298 27.4631 19.2216 26.5426 19.6051 25.7926C19.9886 25.0426 20.517 24.4332 21.1903 23.9645C21.8636 23.4957 22.6392 23.142 23.517 22.9034C24.3949 22.6562 25.3324 22.4901 26.3295 22.4048C27.446 22.3026 28.3452 22.196 29.027 22.0852C29.7088 21.9659 30.2031 21.7997 30.5099 21.5866C30.8253 21.3651 30.983 21.054 30.983 20.6534V20.5895C30.983 19.9332 30.7571 19.4261 30.3054 19.0682C29.8537 18.7102 29.2443 18.5312 28.4773 18.5312C27.6506 18.5312 26.9858 18.7102 26.483 19.0682C25.9801 19.4261 25.6605 19.9205 25.5241 20.5511L19.7585 20.3466C19.929 19.1534 20.3679 18.0881 21.0753 17.1506C21.7912 16.2045 22.7713 15.4631 24.0156 14.9261C25.2685 14.3807 26.7727 14.108 28.5284 14.108C29.7813 14.108 30.9361 14.2571 31.9929 14.5554C33.0497 14.8452 33.9702 15.2713 34.7543 15.8338C35.5384 16.3878 36.1435 17.0696 36.5696 17.8793C37.0043 18.6889 37.2216 19.6136 37.2216 20.6534V34H31.3409V31.2642H31.1875C30.8381 31.929 30.3906 32.4915 29.8452 32.9517C29.3082 33.4119 28.6733 33.7571 27.9403 33.9872C27.2159 34.2173 26.3977 34.3324 25.4858 34.3324ZM27.4162 30.2415C28.0895 30.2415 28.6946 30.1051 29.2315 29.8324C29.777 29.5597 30.2116 29.1847 30.5355 28.7074C30.8594 28.2216 31.0213 27.6591 31.0213 27.0199V25.1534C30.8423 25.2472 30.625 25.3324 30.3693 25.4091C30.1222 25.4858 29.8494 25.5582 29.5511 25.6264C29.2528 25.6946 28.946 25.7543 28.6307 25.8054C28.3153 25.8565 28.0128 25.9034 27.723 25.946C27.1349 26.0398 26.6321 26.1847 26.2145 26.3807C25.8054 26.5767 25.4901 26.8324 25.2685 27.1477C25.0554 27.4545 24.9489 27.821 24.9489 28.2472C24.9489 28.8949 25.179 29.3892 25.6392 29.7301C26.108 30.071 26.7003 30.2415 27.4162 30.2415Z" fill="#1E293B"/>
</g>
<defs>
<clipPath id="clip0_36_2">
<rect width="48" height="48" rx="12" fill="white"/>
</clipPath>
</defs>
</svg>
